<?xml version="1.0" standalone="no"?>
<!DOCTYPE svg PUBLIC "-//W3C//DTD SVG 1.1//EN" "http://www.w3.org/Graphics/SVG/1.1/DTD/svg11.dtd" >
<svg xmlns="http://www.w3.org/2000/svg">
<metadata></metadata>
<defs>
<font id="samurairegular" horiz-adv-x="1804" >
<font-face units-per-em="2048" ascent="1636" descent="-412" />
<missing-glyph horiz-adv-x="500" />
<glyph horiz-adv-x="2048" />
<glyph horiz-adv-x="2048" />
<glyph unicode="&#xd;" />
<glyph unicode=" " />
<glyph unicode="!" horiz-adv-x="680" d="M52 1732v148q80 44 168 44q216 0 320 -196q80 -152 80 -388q0 -452 -296 -1116l-200 -8q168 272 144 660q-24 380 -216 856zM124 56l116 -108l116 108v-240l-116 76l-116 -76v240z" />
<glyph unicode="&#x22;" horiz-adv-x="996" d="M76 1288q200 168 200 388t-200 488h228q160 -280 160 -460q0 -96 -48 -214t-116 -202h-224zM528 1288q200 168 200 388t-200 488h224q164 -284 164 -464q0 -92 -50 -210t-114 -202h-224z" />
<glyph unicode="'" horiz-adv-x="592" d="M76 1288q200 168 200 388t-200 488h228q160 -280 160 -460q0 -96 -48 -214t-116 -202h-224z" />
<glyph unicode="(" horiz-adv-x="1412" d="M40 1188q0 708 1224 1048l224 -28q-1016 -584 -1016 -1272q0 -808 1372 -1552l-188 -120q-1616 1072 -1616 1924z" />
<glyph unicode=")" horiz-adv-x="1440" d="M-516 -616q1372 760 1372 1552q0 684 -1012 1272l220 28q1224 -340 1224 -1048q0 -852 -1616 -1924z" />
<glyph unicode="," horiz-adv-x="592" d="M84 -372q196 168 196 384q0 220 -196 488h224q164 -284 164 -460q0 -84 -56 -216q-48 -112 -108 -196h-224z" />
<glyph unicode="-" horiz-adv-x="1596" d="M16 812q72 340 540 340q240 0 504 -98t460 -250q-156 164 -584 184q-456 24 -920 -176z" />
<glyph unicode="." horiz-adv-x="528" d="M52 16q48 96 48 192q0 100 -48 196q92 -64 192 -64q96 0 196 64q-52 -92 -64 -184q-12 -96 64 -204q-124 60 -216 56t-172 -56z" />
<glyph unicode="/" horiz-adv-x="1500" d="M156 224q0 428 392 1020q280 420 708 856l176 -108q-608 -476 -840 -1988l-92 -188q-164 -12 -260 120q-84 116 -84 288z" />
<glyph unicode="0" horiz-adv-x="2256" d="M16 1212q-40 440 812 692q-52 20 -152 68l224 20q48 -12 140 -28q80 12 196 40l224 -20q-96 -48 -184 -80q876 -252 852 -692t-916 -976q268 -148 608 -272l-188 -88q-340 156 -552 284q-196 -112 -572 -296l-188 88q352 132 628 284q-892 536 -932 976zM440 1100 q0 -408 640 -788q564 348 612 732q44 380 -636 748q-616 -340 -616 -692z" />
<glyph unicode="1" horiz-adv-x="1084" d="M56 240q-20 632 780 1680l200 -52q-528 -536 -484 -1860l-52 -176q-52 -16 -104 -16q-168 0 -256 132q-80 116 -84 292z" />
<glyph unicode="2" horiz-adv-x="1836" d="M-64 -112q28 12 328 132q-144 44 -244 44v224q132 0 248 -44q48 -20 220 -112q824 432 820 872q-4 484 -1020 900l228 24q1212 -240 1224 -740t-1104 -1124q112 -40 240 -40t224 32q80 28 208 100q232 132 428 132v-224q-136 -4 -228 -36q-68 -24 -200 -96t-208 -96 q-108 -36 -224 -36q-140 0 -240 40q-20 8 -216 108q-100 -48 -300 -148z" />
<glyph unicode="3" horiz-adv-x="1352" d="M-176 -200l172 200q144 104 360 228q92 48 272 152q200 120 208 208q8 68 -140 164q-64 -48 -136 -76l-412 76q156 36 296 128q-140 56 -416 172h48q140 -44 424 -132q372 272 484 676q-64 -20 -156 -20q-184 0 -408 64q-140 40 -388 136l-20 136q208 -108 392 -120 q324 -16 596 144l200 120v-280q-28 -36 -84 -100v-4q-108 -620 -336 -848q484 -188 484 -324q0 -164 -668 -392q-352 -120 -772 -308z" />
<glyph unicode="4" horiz-adv-x="1956" d="M8 1312q0 512 1224 756l224 -20q-408 -168 -636 -328q-376 -264 -376 -560q0 -352 460 -676q112 604 760 1444l200 -52q-488 -488 -488 -1664q248 -120 436 -188l-188 -80q-84 36 -244 116v-44l-56 -180q-52 -12 -96 -12q-200 0 -288 164q-72 136 -56 348 q-876 540 -876 976z" />
<glyph unicode="5" horiz-adv-x="1556" d="M-168 -200l168 200q56 36 448 228q200 96 268 140q200 124 200 204q0 116 -428 300q-4 -60 -4 -116t4 -112l-48 -120q-44 -12 -88 -12q-128 0 -212 78t-84 206q0 96 44 228q-44 12 -68 28h48q16 -8 28 -8q88 232 340 548q-60 28 -152 132v236q204 -116 340 -160 q20 24 48 52l48 48l172 -32q-80 -68 -116 -112q144 -36 320 -24q172 12 376 104l-20 -116q-560 -176 -816 -168q-132 -264 -156 -628q576 -192 716 -316q64 -56 64 -112q0 -156 -620 -368q-392 -132 -820 -328z" />
<glyph unicode="6" horiz-adv-x="1548" d="M-212 -132q208 52 352 84q-72 104 -72 300q0 164 48 380q108 484 720 1288l200 -52q-508 -516 -484 -1800q632 212 604 440q-20 160 -408 388q244 -8 424 -60q280 -84 280 -260q0 -224 -388 -424q-232 -120 -528 -204l-36 -116q-56 -16 -108 -16q-112 0 -196 72z" />
<glyph unicode="7" horiz-adv-x="1556" d="M12 1996q524 -392 996 -372q12 20 104 144l112 152l200 -52q-92 -92 -152 -192q100 40 196 112l16 -144q-172 -72 -288 -100q-288 -564 -256 -1536l-56 -176q-48 -12 -96 -12q-172 0 -264 136q-80 116 -80 296q0 500 476 1236q-100 -12 -196 -12q-348 0 -616 168z" />
<glyph unicode="8" horiz-adv-x="1976" d="M28 1296q0 516 1220 760l228 -20q-724 -296 -920 -608q-96 -152 -96 -304q0 -160 108 -316q184 468 676 1120l200 -52q-592 -800 -696 -1264q316 -292 1008 -572q80 0 96 -16q32 -32 -208 -96q-316 -64 -740 -124q-204 28 -356 204q-92 104 -92 288q0 132 44 304 q-472 380 -472 696zM728 436q-8 -280 232 -384q20 -8 156 -8h284q-392 200 -672 392z" />
<glyph unicode="9" horiz-adv-x="1892" d="M20 1460q0 276 956 436l108 4q4 4 4 8l20 -4l696 48q-204 -24 -552 -88l36 -8q-312 -320 -420 -920q172 -84 380 -156h-272q-20 8 -68 28l-60 24q-60 -364 -44 -832l-52 -180q-52 -16 -104 -16q-172 0 -264 144q-76 124 -76 304q0 316 204 744q-492 264 -492 464z M352 1380q0 -128 216 -276q176 344 448 704q-436 -120 -604 -296q-60 -64 -60 -132z" />
<glyph unicode=":" horiz-adv-x="592" d="M52 16q48 96 48 192q0 100 -48 196q92 -64 192 -64q96 0 196 64q-52 -92 -64 -184q-12 -96 64 -204q-124 60 -216 56t-172 -56zM56 1016q56 96 56 192t-56 196q100 -64 196 -64t192 64q-48 -88 -60 -184q-12 -100 60 -204q-120 60 -212 56t-176 -56z" />
<glyph unicode=";" horiz-adv-x="592" d="M56 1016q56 96 56 192t-56 196q100 -64 196 -64t192 64q-48 -88 -60 -184q-12 -100 60 -204q-120 60 -212 56t-176 -56zM84 12q200 164 200 384t-200 492h224q164 -284 164 -464q0 -92 -50 -210t-114 -202h-224z" />
<glyph unicode="&#x3c;" horiz-adv-x="1920" d="M28 1132q0 424 1220 628l228 -20q-1016 -352 -1016 -760q0 -296 556 -592q340 -180 816 -332l-188 -68q-1616 640 -1616 1144z" />
<glyph unicode="=" horiz-adv-x="1596" d="M12 416q72 340 536 340q240 0 510 -98t458 -250q-160 168 -584 184q-480 20 -920 -176zM16 812q72 340 540 340q240 0 504 -98t460 -250q-156 164 -584 184q-456 24 -920 -176z" />
<glyph unicode="&#x3e;" horiz-adv-x="1984" d="M16 60q1368 440 1368 928q0 408 -1012 760l228 16q1220 -200 1220 -624q0 -508 -1616 -1148z" />
<glyph unicode="?" horiz-adv-x="1704" d="M48 1484q0 212 228 340q196 108 424 108q312 0 476 -184t164 -500q0 -372 -240 -900l-188 -56q208 436 208 720q0 100 -24 180q-140 464 -516 464q-120 0 -208 -52q-108 -64 -108 -176q0 -160 160 -348q88 -104 96 -128q-472 244 -472 532zM844 144q84 -60 176 -60 t188 60q-48 -84 -60 -168q-12 -88 60 -192q-128 56 -204 52q-104 -8 -160 -52q44 88 44 180t-44 180z" />
<glyph unicode="A" horiz-adv-x="1588" d="M20 272q0 336 224 788v196q12 -24 28 -44l32 -40q168 324 496 756l200 -52q-32 -32 -44 -48q52 -484 252 -1024q72 64 148 192v-224q-44 -72 -84 -132q88 -240 244 -564l-216 -68q-96 180 -196 456q-108 -84 -216 -84q-176 0 -360 216q-16 -184 -16 -380q0 -100 4 -200 l-56 -180q-52 -16 -100 -16q-180 0 -268 144q-72 116 -72 308zM560 868q200 -188 380 -188q44 0 88 12q-124 376 -244 888q-160 -296 -224 -712z" />
<glyph unicode="B" horiz-adv-x="1652" d="M20 248q-1 18 -1 37q0 622 781 1643l200 -52q-28 -28 -76 -84h204q392 -232 392 -456q0 -284 -524 -584q332 -231 332 -461q0 -226 -392 -451h-228q324 176 324 408q0 196 -244 432h-144l84 60q-88 68 -168 128q-48 -300 -48 -640q0 -104 4 -212l-56 -180 q-52 -12 -96 -12q-168 0 -260 132q-76 112 -84 292zM576 944h100q32 -16 94 -52t94 -52q344 276 356 520v12q0 233 -304 412q-252 -324 -340 -840z" />
<glyph unicode="C" horiz-adv-x="1936" d="M40 1204q0 504 1224 748l224 -20q-1016 -420 -1016 -912q0 -352 528 -696q328 -216 844 -412l-188 -84q-1616 764 -1616 1376z" />
<glyph unicode="D" horiz-adv-x="2004" d="M-120 -52l96 28q28 8 96 28q-44 96 -44 244q0 172 56 408q104 440 620 1144q-92 44 -280 128h228q56 -24 120 -40q12 24 28 40l200 -52q-32 -32 -48 -52q848 -320 848 -728q0 -524 -1284 -1072v-8l-56 -180q-56 -12 -104 -12q-104 0 -188 64q-48 -16 -112 -40zM512 164 q964 400 964 852q0 356 -608 700q-356 -509 -356 -1508v-44z" />
<glyph unicode="E" d="M24 196q-4 42 -4 85q0 551 608 1415q-8 0 -12 8l-12 8v228q60 -80 108 -128q12 12 88 116l200 -52q-76 -76 -140 -172q124 -72 260 -72q292 0 600 308v-224q-80 -340 -328 -364q-22 -2 -44 -2q-235 0 -564 230q-140 -256 -212 -640q268 172 480 172q280 0 484 -284v-224 q-380 288 -660 288q-188 0 -332 -132q-32 -284 -32 -564q152 -112 328 -112q296 0 604 308v-228q-80 -332 -324 -356q-23 -2 -46 -2q-234 0 -558 218v-8l-56 -180q-48 -12 -96 -12q-304 0 -340 372z" />
<glyph unicode="F" d="M24 196q-4 42 -4 85q0 551 608 1415q-8 0 -12 8l-12 8v228q60 -80 108 -128q12 12 88 116l200 -52q-76 -76 -140 -172q124 -72 260 -72q292 0 600 308v-224q-80 -340 -328 -364q-22 -2 -44 -2q-235 0 -564 230q-140 -256 -212 -640q268 172 480 172q280 0 484 -284v-224 q-380 288 -660 288q-188 0 -332 -132q-32 -244 -32 -528q0 -108 4 -216l-56 -180q-48 -12 -96 -12q-304 0 -340 372z" />
<glyph unicode="G" horiz-adv-x="1768" d="M32 380q4 556 768 1548l200 -52q-616 -1000 -616 -1456q0 -284 256 -304q22 -2 44 -2q220 0 492 178q269 176 269 320q0 10 -1 20l80 -180q-52 -108 -216 -260q-144 -132 -272 -212q-292 -184 -500 -184q-184 0 -392 220q-112 116 -112 348v16zM992 484l60 216 q268 276 388 276q156 0 212 -360q24 -156 32 -468l-64 -212q1 51 1 99q0 575 -133 653q-36 20 -80 20q-148 0 -416 -224z" />
<glyph unicode="H" horiz-adv-x="2388" d="M20 248q-1 18 -1 37q0 622 781 1643l200 -52q-320 -328 -428 -952q92 -20 184 -88q72 -56 148 -112q92 -56 204 -56q144 0 300 124q188 500 668 1128l200 -52q-488 -496 -488 -1656q0 -100 4 -204l-56 -176q-52 -16 -104 -16q-164 0 -260 136q-84 120 -84 292 q0 116 32 260q-96 -60 -212 -60t-296 124t-272 136q-28 -228 -28 -480q0 -104 4 -208l-56 -180q-52 -12 -96 -12q-168 0 -260 132q-76 112 -84 292z" />
<glyph unicode="I" horiz-adv-x="1900" d="M4 1392q36 272 216 440q172 160 424 160h24q252 -8 420 -178t180 -422q-208 288 -484 352q448 -628 568 -1044q76 -264 76 -448q0 -104 -24 -184q220 80 408 332q-12 -256 -178 -422t-422 -174h-25q-255 0 -425 158q-178 166 -214 438q176 -228 388 -316q1 63 1 124 q0 1027 -381 1544q-308 -52 -552 -360z" />
<glyph unicode="J" horiz-adv-x="1668" d="M24 1836q0 48 4 104q136 -124 532 -172q-48 64 -96 120l184 48q44 -60 132 -184q46 -2 92 -2q346 0 720 106l-448 -144q-164 -52 -272 -92q236 -368 348 -624q151 -351 151 -619q0 -37 -3 -73q-20 -212 -190 -352t-386 -140q-232 0 -396 158t-192 390q251 -327 456 -327 q20 0 40 3q116 20 180 232q44 148 44 320q0 236 -66 496t-174 476q-212 -68 -344 -68q-316 0 -316 344z" />
<glyph unicode="K" horiz-adv-x="1956" d="M20 248q-1 18 -1 37q0 622 781 1643l200 -52q-324 -324 -432 -964q436 88 708 352q288 276 348 704q220 -116 220 -300q0 -232 -296 -472q-164 -132 -364 -228q16 -64 68 -112q20 -16 112 -72q144 -84 172 -204q4 -32 4 -60q0 -72 -86 -226t-86 -226q0 -32 8 -64 l-216 -60q-8 36 -8 68q0 56 84 214t84 242q0 136 -96 204q-76 40 -148 84t-104 128q-212 -72 -420 -84q-40 -268 -40 -568q0 -104 4 -216l-56 -180q-52 -12 -96 -12q-168 0 -260 132q-76 112 -84 292z" />
<glyph unicode="L" horiz-adv-x="1744" d="M-292 188q52 -156 392 -228q-72 104 -72 296q0 152 52 384q108 488 720 1288l200 -52q-488 -496 -488 -1656q0 -100 4 -204l76 -68q344 20 544 140q249 151 249 437q0 17 -1 35q256 -152 256 -312q0 -164 -240 -284q-300 -152 -732 -172q-47 -3 -93 -3q-242 0 -451 71 q-308 100 -416 328z" />
<glyph unicode="M" horiz-adv-x="2496" d="M20 248q-1 18 -1 37q0 622 781 1643l8 8q64 -36 80 -44q48 -28 96 -100q4 -4 72 -120q68 -92 148 -92q76 0 144 84l96 152q0 16 72 56q55 31 82 31q8 0 14 -3q761 -1009 761 -1623q0 -19 -1 -37q-8 -176 -88 -288q-92 -128 -256 -128q-48 0 -96 12l-56 180q2 73 2 143 q0 951 -302 1469q-56 -16 -104 -80q-16 -16 -76 -112q-100 -160 -192 -160q-96 0 -200 168q-60 96 -76 116q-52 64 -112 72q-304 -508 -304 -1408q0 -100 4 -208l-56 -180q-52 -12 -96 -12q-168 0 -260 132q-76 112 -84 292z" />
<glyph unicode="N" horiz-adv-x="2176" d="M20 248q-1 18 -1 37q0 622 781 1643h4l204 76q236 -208 264 -820q8 -172 8 -296q0 -4 -8 -396q-2 -104 -2 -202t2 -190q302 518 302 1472q0 71 -2 144l56 184q48 12 96 12q168 0 260 -132q80 -112 84 -288q0 -16 1 -31q0 -626 -773 -1641v-12h-244q-21 171 -21 402 q0 38 1 78q2 104 2 237t-2 295q-4 636 -132 940q-388 -516 -388 -1528q0 -108 4 -216l-56 -180q-52 -12 -96 -12q-168 0 -260 132q-76 112 -84 292z" />
<glyph unicode="O" horiz-adv-x="1848" d="M32 868q0 416 220 728q252 356 644 356t644 -356q220 -312 220 -728q0 -408 -224 -724q-248 -356 -640 -356q-400 0 -644 352q-220 312 -220 728zM484 1056q0 -220 104 -396q120 -212 324 -212t324 212q104 176 104 396t-104 396q-120 208 -324 208t-324 -208 q-104 -176 -104 -396z" />
<glyph unicode="P" horiz-adv-x="2076" d="M20 204q-3 37 -3 75q0 552 643 1461q-44 24 -132 64l-108 200q176 -56 360 -104l20 28l200 -52q-24 -24 -32 -36q400 -124 576 -208q392 -188 392 -392q0 -344 -1004 -856l-180 104q360 168 484 240q360 204 376 348v10q0 137 -324 338q-108 64 -456 236 q-320 -512 -320 -1440q0 -100 4 -204l-56 -180q-52 -16 -100 -16q-160 0 -248 116q-76 100 -92 268z" />
<glyph unicode="Q" horiz-adv-x="1648" d="M28 976q0 372 196 652q220 316 576 316t576 -316q196 -280 196 -652q0 -400 -224 -684l-24 -24q144 -220 144 -356h-224q0 96 -64 220q-168 -120 -380 -120q-360 0 -576 312q-196 276 -196 652zM432 1144q0 -200 92 -356q108 -188 292 -188q20 0 60 8q-64 112 -64 220 h228q0 -60 16 -108q4 4 28 40q112 156 112 384q0 196 -92 352q-108 188 -288 188q-184 0 -292 -188q-92 -156 -92 -352z" />
<glyph unicode="R" horiz-adv-x="2076" d="M20 204q-3 37 -3 75q0 552 643 1461q-44 24 -132 64l-108 200q176 -56 360 -104l20 28l200 -52q-24 -24 -32 -36q400 -124 576 -208q392 -188 392 -392q0 -344 -1004 -856l-32 20q128 -200 444 -304q244 -80 548 -92l-128 -220q-68 24 -268 80q-168 44 -264 88 q-332 148 -520 480l108 200q0 -48 20 -108q292 136 444 228q328 196 328 332q0 140 -328 340q-112 68 -452 232q-320 -512 -320 -1440q0 -100 4 -204l-56 -180q-52 -16 -100 -16q-160 0 -248 116q-76 100 -92 268z" />
<glyph unicode="S" horiz-adv-x="1704" d="M32 -116q352 68 532 116q356 96 488 216q44 40 44 96q0 112 -172 312q-48 56 -264 272l-276 276q-320 320 -340 512q-1 11 -1 21q0 148 213 215q156 48 368 48q228 0 608 -56l244 -36q-668 -164 -836 -276q-120 -80 -120 -160q0 -100 320 -368q556 -464 696 -784 q24 -56 24 -116q0 -208 -376 -296q-224 -52 -528 -52q-172 0 -376 16z" />
<glyph unicode="T" horiz-adv-x="1740" d="M12 892q32 380 196 676q232 420 604 420q336 0 580 -400q176 -284 268 -704l-340 -60q-112 -20 -140 -20q-16 0 -16 8q12 8 80 84q103 117 103 245q0 21 -3 43q-32 232 -368 504q-336 -512 -336 -1468q0 -100 4 -204l-56 -180q-48 -12 -96 -12q-156 0 -240 104t-100 264 q-4 41 -4 85q0 544 604 1407q-344 -96 -740 -792z" />
<glyph unicode="U" horiz-adv-x="1828" d="M20 376q40 552 792 1540l200 -52q-564 -724 -600 -1232q-2 -29 -2 -56q0 -163 62 -276q88 -160 276 -160q148 0 296 112q124 92 216 236q248 384 248 1004q0 56 -6 172t-6 172q0 156 48 156q60 0 116 -224q68 -276 68 -568q0 -256 -28 -404q-40 -212 -152 -368 q-272 -384 -748 -528q-160 -48 -308 -48q-248 0 -370 138q-105 119 -105 318q0 33 3 68z" />
<glyph unicode="V" horiz-adv-x="2068" d="M20 264q0 640 780 1664l200 -52q-488 -496 -488 -1656q0 -100 4 -204l-4 -12q436 264 692 572q328 392 328 816q0 232 -120 496l296 4q188 -272 188 -520q0 -112 -28 -200q-192 -616 -948 -1064q-348 -204 -460 -268v-4h-4q-4 0 -4 -4h-4q-48 -8 -88 -8q-72 0 -128 24 q-108 48 -164 176q-48 108 -48 240z" />
<glyph unicode="W" horiz-adv-x="2532" d="M28 1504q8 184 84 296q88 128 264 128q48 0 96 -12l56 -180q-4 -112 -4 -224q0 -908 308 -1408q68 4 128 92q32 56 70 116t74 96q56 56 120 56q72 0 140 -88q52 -76 100 -152q68 -100 136 -116q302 533 302 1485q0 71 -2 143l60 180q44 12 92 12q168 0 260 -128 q80 -112 88 -292q1 -21 1 -43q0 -609 -765 -1629q-4 -1 -9 -1q-27 0 -89 35q-74 42 -74 54q-140 232 -240 232q-80 0 -152 -88l-76 -128q-48 -72 -104 -104q-44 -16 -68 -36l-8 8q-789 1014 -789 1658q0 19 1 38z" />
<glyph unicode="X" horiz-adv-x="1792" d="M16 1776l172 148q164 -196 272 -500q208 324 344 496l200 -52q-280 -288 -396 -808q136 -236 360 -400q84 -60 260 -152t256 -148q120 -84 224 -204l-172 -148q-168 192 -480 356q-196 104 -260 148q-112 80 -220 208q-12 8 -24 28q-35 -280 -35 -577q0 -81 3 -163 l-52 -176q-52 -12 -100 -12q-176 0 -268 140q-76 116 -76 304q0 384 292 916q-84 240 -116 312q-64 144 -184 284z" />
<glyph unicode="Y" horiz-adv-x="1416" d="M8 1732l164 156q84 36 152 36q212 0 336 -380q8 -24 68 -252q168 288 424 628l200 -52q-487 -495 -487 -1661q0 -97 3 -199l-52 -176q-52 -16 -100 -16q-180 0 -268 136q-76 116 -76 304q0 356 260 860q-64 288 -196 428q-148 156 -428 188z" />
<glyph unicode="Z" horiz-adv-x="1936" d="M24 64q212 -4 460 -134t448 -130q128 0 240 36q76 24 216 96q252 128 456 132v224q-124 0 -236 -36q-76 -24 -218 -98t-218 -98q-104 -32 -240 -32q-144 0 -244 32q-72 24 -192 88q-132 72 -192 96q1524 608 1524 1092q0 420 -1224 620l-224 -16q1016 -340 1016 -752 q0 -288 -540 -576q-312 -164 -792 -320h-40v-224z" />
<glyph unicode="\" horiz-adv-x="1412" d="M44 1992l176 108q972 -992 1084 -1712q12 -76 12 -164q0 -176 -80 -288q-92 -132 -260 -120l-92 188q-240 1512 -840 1988z" />
<glyph unicode="a" horiz-adv-x="1588" d="M20 272q0 336 224 788v196q12 -24 28 -44l32 -40q168 324 496 756l200 -52q-32 -32 -44 -48q52 -484 252 -1024q72 64 148 192v-224q-44 -72 -84 -132q88 -240 244 -564l-216 -68q-96 180 -196 456q-108 -84 -216 -84q-176 0 -360 216q-16 -184 -16 -380q0 -100 4 -200 l-56 -180q-52 -16 -100 -16q-180 0 -268 144q-72 116 -72 308zM560 868q200 -188 380 -188q44 0 88 12q-124 376 -244 888q-160 -296 -224 -712z" />
<glyph unicode="b" horiz-adv-x="1652" d="M20 248q-1 18 -1 37q0 622 781 1643l200 -52q-28 -28 -76 -84h204q392 -232 392 -456q0 -284 -524 -584q332 -231 332 -461q0 -226 -392 -451h-228q324 176 324 408q0 196 -244 432h-144l84 60q-88 68 -168 128q-48 -300 -48 -640q0 -104 4 -212l-56 -180 q-52 -12 -96 -12q-168 0 -260 132q-76 112 -84 292zM576 944h100q32 -16 94 -52t94 -52q344 276 356 520v12q0 233 -304 412q-252 -324 -340 -840z" />
<glyph unicode="c" horiz-adv-x="1936" d="M40 1204q0 504 1224 748l224 -20q-1012 -416 -1016 -912q0 -352 528 -696q328 -216 844 -412l-188 -84q-1616 764 -1616 1376z" />
<glyph unicode="d" horiz-adv-x="2004" d="M-120 -52l96 28q28 8 96 28q-44 96 -44 244q0 172 56 408q104 440 620 1144q-92 44 -280 128h228q56 -24 120 -40q12 24 28 40l200 -52q-32 -32 -48 -52q848 -320 848 -728q0 -524 -1284 -1072v-8l-56 -180q-56 -12 -104 -12q-104 0 -188 64q-48 -16 -112 -40zM512 164 q964 400 964 852q0 356 -608 700q-356 -509 -356 -1508v-44z" />
<glyph unicode="e" d="M24 196q-4 42 -4 85q0 551 608 1415q-8 0 -12 8l-12 8v228q60 -80 108 -128q8 12 88 116l200 -52q-76 -76 -140 -172q124 -72 260 -72q292 0 600 308v-224q-80 -340 -328 -364q-22 -2 -44 -2q-235 0 -564 230q-140 -256 -212 -640q268 172 480 172q280 0 484 -284v-224 q-380 288 -660 288q-188 0 -332 -132q-32 -284 -32 -564q152 -112 328 -112q296 0 604 308v-228q-80 -332 -324 -356q-23 -2 -46 -2q-234 0 -558 218v-8l-56 -180q-48 -12 -96 -12q-304 0 -340 372z" />
<glyph unicode="f" d="M24 196q-4 42 -4 85q0 551 608 1415q-8 0 -12 8l-12 8v228q60 -80 108 -128q8 12 88 116l200 -52q-76 -76 -140 -172q124 -72 260 -72q292 0 600 308v-224q-80 -340 -328 -364q-22 -2 -44 -2q-235 0 -564 230q-140 -256 -212 -640q268 172 480 172q280 0 484 -284v-224 q-380 288 -660 288q-188 0 -332 -132q-32 -244 -32 -528q0 -108 4 -216l-56 -180q-48 -12 -96 -12q-304 0 -340 372z" />
<glyph unicode="g" horiz-adv-x="1768" d="M32 380q4 556 768 1548l200 -52q-616 -1000 -616 -1456q0 -284 256 -304q22 -2 44 -2q220 0 492 178q269 176 269 320q0 10 -1 20l80 -180q-52 -108 -216 -260q-144 -132 -272 -212q-292 -184 -500 -184q-184 0 -392 220q-112 116 -112 348v16zM992 484l60 216 q268 276 388 276q156 0 212 -360q24 -156 32 -468l-64 -212q1 51 1 99q0 575 -133 653q-36 20 -80 20q-148 0 -416 -224z" />
<glyph unicode="h" horiz-adv-x="2388" d="M20 248q-1 18 -1 37q0 622 781 1643l200 -52q-320 -328 -428 -952q92 -20 184 -88q72 -56 148 -112q92 -56 204 -56q144 0 300 124q188 500 668 1128l200 -52q-488 -496 -488 -1656q0 -100 4 -204l-56 -176q-52 -16 -104 -16q-164 0 -260 136q-84 120 -84 292 q0 116 32 260q-96 -60 -212 -60t-296 124t-272 136q-28 -228 -28 -480q0 -104 4 -208l-56 -180q-52 -12 -96 -12q-168 0 -260 132q-76 112 -84 292z" />
<glyph unicode="i" horiz-adv-x="1900" d="M4 1392q36 272 216 440q172 160 424 160h24q252 -8 420 -178t180 -422q-208 288 -484 352q448 -628 568 -1044q76 -264 76 -448q0 -104 -24 -184q220 80 408 332q-12 -256 -178 -422t-422 -174h-25q-255 0 -425 158q-178 166 -214 438q176 -228 388 -316q1 63 1 124 q0 1027 -381 1544q-308 -52 -552 -360z" />
<glyph unicode="j" horiz-adv-x="1668" d="M24 1836q0 48 4 104q136 -124 532 -172q-48 64 -96 120l184 48q44 -60 132 -184q46 -2 92 -2q346 0 720 106l-448 -144q-164 -52 -272 -92q236 -368 348 -624q151 -351 151 -619q0 -37 -3 -73q-20 -212 -190 -352t-386 -140q-232 0 -396 158t-192 390q251 -327 456 -327 q20 0 40 3q116 20 180 232q44 148 44 320q0 236 -66 496t-174 476q-212 -68 -344 -68q-316 0 -316 344z" />
<glyph unicode="k" horiz-adv-x="1956" d="M20 248q-1 18 -1 37q0 622 781 1643l200 -52q-324 -324 -432 -964q436 88 708 352q288 276 348 704q220 -116 220 -300q0 -232 -296 -472q-164 -132 -364 -228q16 -64 68 -112q20 -16 112 -72q144 -84 172 -204q4 -32 4 -60q0 -72 -86 -226t-86 -226q0 -32 8 -64 l-216 -60q-8 36 -8 68q0 56 84 214t84 242q0 136 -96 204q-76 40 -148 84t-104 128q-212 -72 -420 -84q-40 -268 -40 -568q0 -104 4 -216l-56 -180q-52 -12 -96 -12q-168 0 -260 132q-76 112 -84 292z" />
<glyph unicode="l" horiz-adv-x="1744" d="M-292 188q52 -156 392 -228q-72 104 -72 296q0 152 52 384q108 488 720 1288l200 -52q-488 -496 -488 -1656q0 -100 4 -204l76 -68q344 20 544 140q249 151 249 437q0 17 -1 35q256 -152 256 -312q0 -164 -240 -284q-300 -152 -732 -172q-47 -3 -93 -3q-242 0 -451 71 q-308 100 -416 328z" />
<glyph unicode="m" horiz-adv-x="2496" d="M20 248q-1 18 -1 37q0 622 781 1643l8 8q64 -36 80 -44q48 -28 96 -100q4 -4 72 -120q68 -92 148 -92q76 0 144 84l96 152q0 16 72 56q55 31 82 31q8 0 14 -3q761 -1009 761 -1623q0 -19 -1 -37q-8 -176 -88 -288q-92 -128 -256 -128q-48 0 -96 12l-56 180q2 73 2 143 q0 951 -302 1469q-56 -16 -104 -80q-16 -16 -76 -112q-100 -160 -192 -160q-96 0 -200 168q-60 96 -76 116q-52 64 -112 72q-304 -508 -304 -1408q0 -100 4 -208l-56 -180q-52 -12 -96 -12q-168 0 -260 132q-76 112 -84 292z" />
<glyph unicode="n" horiz-adv-x="2176" d="M20 248q-1 18 -1 37q0 622 781 1643h4l204 76q236 -208 264 -820q8 -172 8 -296q0 -4 -8 -396q-2 -104 -2 -202t2 -190q302 518 302 1472q0 71 -2 144l56 184q48 12 96 12q168 0 260 -132q80 -112 84 -288q0 -16 1 -31q0 -626 -773 -1641v-12h-244q-21 171 -21 402 q0 38 1 78q2 104 2 237t-2 295q-4 636 -132 940q-388 -516 -388 -1528q0 -108 4 -216l-56 -180q-52 -12 -96 -12q-168 0 -260 132q-76 112 -84 292z" />
<glyph unicode="o" horiz-adv-x="1848" d="M32 868q0 416 220 728q252 356 644 356t644 -356q220 -312 220 -728q0 -408 -224 -724q-248 -356 -640 -356q-400 0 -644 352q-220 312 -220 728zM484 1056q0 -220 104 -396q120 -212 324 -212t324 212q104 176 104 396t-104 396q-120 208 -324 208t-324 -208 q-104 -176 -104 -396z" />
<glyph unicode="p" horiz-adv-x="2076" d="M20 204q-3 37 -3 75q0 552 643 1461q-44 24 -132 64l-108 200q176 -56 360 -104l20 28l200 -52q-24 -24 -32 -36q400 -124 576 -208q392 -188 392 -392q0 -344 -1004 -856l-180 104q360 168 484 240q360 204 376 348v10q0 137 -324 338q-108 64 -456 236 q-320 -512 -320 -1440q0 -100 4 -204l-56 -180q-52 -16 -100 -16q-160 0 -248 116q-76 100 -92 268z" />
<glyph unicode="q" horiz-adv-x="1648" d="M28 976q0 372 196 652q220 316 576 316t576 -316q196 -280 196 -652q0 -400 -224 -684l-24 -24q144 -220 144 -356h-224q0 96 -64 220q-168 -120 -380 -120q-360 0 -576 312q-196 276 -196 652zM432 1144q0 -200 92 -356q108 -188 292 -188q20 0 60 8q-64 112 -64 220 h228q0 -60 16 -108q4 4 28 40q112 156 112 384q0 196 -92 352q-108 188 -288 188q-184 0 -292 -188q-92 -156 -92 -352z" />
<glyph unicode="r" horiz-adv-x="2076" d="M20 204q-3 37 -3 75q0 552 643 1461q-44 24 -132 64l-108 200q176 -56 360 -104l20 28l200 -52q-24 -24 -32 -36q400 -124 576 -208q392 -188 392 -392q0 -344 -1004 -856l-32 20q128 -200 444 -304q244 -80 548 -92l-128 -220q-68 24 -268 80q-168 44 -264 88 q-332 148 -520 480l108 200q0 -48 20 -108q292 136 444 228q328 196 328 332q0 140 -328 340q-112 68 -452 232q-320 -512 -320 -1440q0 -100 4 -204l-56 -180q-52 -16 -100 -16q-160 0 -248 116q-76 100 -92 268z" />
<glyph unicode="s" horiz-adv-x="1704" d="M32 -116q352 68 532 116q356 96 488 216q44 40 44 96q0 112 -172 312q-48 56 -264 272l-276 276q-320 320 -340 512q-1 11 -1 21q0 148 213 215q156 48 368 48q228 0 608 -56l244 -36q-668 -164 -836 -276q-120 -80 -120 -160q0 -100 320 -368q556 -464 696 -784 q24 -56 24 -116q0 -208 -376 -296q-224 -52 -528 -52q-172 0 -376 16z" />
<glyph unicode="t" horiz-adv-x="1740" d="M12 892q32 380 196 676q232 420 604 420q336 0 580 -400q176 -284 268 -704l-340 -60q-112 -20 -140 -20q-16 0 -16 8q12 8 80 84q103 117 103 245q0 21 -3 43q-32 232 -368 504q-336 -512 -336 -1468q0 -100 4 -204l-56 -180q-48 -12 -96 -12q-156 0 -240 104t-100 264 q-4 41 -4 85q0 544 604 1407q-344 -96 -740 -792z" />
<glyph unicode="u" horiz-adv-x="1828" d="M20 376q40 552 792 1540l200 -52q-564 -724 -600 -1232q-2 -29 -2 -56q0 -163 62 -276q88 -160 276 -160q148 0 296 112q124 92 216 236q248 384 248 1004q0 56 -6 172t-6 172q0 156 48 156q60 0 116 -224q68 -276 68 -568q0 -256 -28 -404q-40 -212 -152 -368 q-272 -384 -748 -528q-160 -48 -308 -48q-248 0 -370 138q-105 119 -105 318q0 33 3 68z" />
<glyph unicode="v" horiz-adv-x="2068" d="M20 264q0 640 780 1664l200 -52q-488 -496 -488 -1656q0 -100 4 -204l-4 -12q436 264 692 572q328 392 328 816q0 232 -120 496l296 4q188 -272 188 -520q0 -112 -28 -200q-192 -616 -948 -1064q-348 -204 -460 -268v-4h-4q-4 0 -4 -4h-4q-48 -8 -88 -8q-72 0 -128 24 q-108 48 -164 176q-48 108 -48 240z" />
<glyph unicode="w" horiz-adv-x="2532" d="M28 1504q8 184 84 296q88 128 264 128q48 0 96 -12l56 -180q-4 -112 -4 -224q0 -908 308 -1408q68 4 128 92q32 56 70 116t74 96q56 56 120 56q72 0 140 -88q52 -76 100 -152q68 -100 136 -116q302 533 302 1485q0 71 -2 143l60 180q44 12 92 12q168 0 260 -128 q80 -112 88 -292q1 -21 1 -43q0 -609 -765 -1629q-4 -1 -9 -1q-27 0 -89 35q-74 42 -74 54q-140 232 -240 232q-80 0 -152 -88l-76 -128q-48 -72 -104 -104q-44 -16 -68 -36l-8 8q-789 1014 -789 1658q0 19 1 38z" />
<glyph unicode="x" horiz-adv-x="1792" d="M16 1776l172 148q164 -196 272 -500q208 324 344 496l200 -52q-280 -288 -396 -808q136 -236 360 -400q84 -60 260 -152t256 -148q120 -84 224 -204l-172 -148q-168 192 -480 356q-196 104 -260 148q-112 80 -220 208q-12 8 -24 28q-35 -280 -35 -577q0 -81 3 -163 l-52 -176q-52 -12 -100 -12q-176 0 -268 140q-76 116 -76 304q0 384 292 916q-84 240 -116 312q-64 144 -184 284z" />
<glyph unicode="y" horiz-adv-x="1416" d="M8 1732l164 156q96 36 156 36q208 -4 332 -380q8 -24 68 -252q168 288 424 628l200 -52q-487 -495 -487 -1661q0 -97 3 -199l-52 -176q-52 -16 -100 -16q-180 0 -268 136q-76 116 -76 304q0 356 260 860q-64 288 -196 428q-148 156 -428 188z" />
<glyph unicode="z" horiz-adv-x="1936" d="M24 64q212 -4 460 -134t448 -130q128 0 240 36q76 24 216 96q252 128 456 132v224q-124 0 -236 -36q-76 -24 -218 -98t-218 -98q-104 -32 -240 -32q-144 0 -244 32q-72 24 -192 88q-132 72 -192 96q1524 608 1524 1092q0 420 -1224 620l-224 -16q1016 -341 1016 -751 q0 -470 -1332 -897h-40v-224z" />
<glyph unicode="~" horiz-adv-x="1324" d="M24 1696v224q128 0 312 -132t308 -132q148 0 316 132q96 76 136 96q68 36 168 36v-224q-92 0 -168 -36q-56 -28 -142 -98t-142 -98q-76 -36 -168 -36q-152 0 -310 134t-310 134z" />
<glyph unicode="&#xa0;" />
<glyph unicode="&#xad;" horiz-adv-x="1596" d="M16 812q72 340 540 340q240 0 504 -98t460 -250q-156 164 -584 184q-456 24 -920 -176z" />
<glyph unicode="&#x2000;" horiz-adv-x="1118" />
<glyph unicode="&#x2001;" horiz-adv-x="2236" />
<glyph unicode="&#x2002;" horiz-adv-x="1118" />
<glyph unicode="&#x2003;" horiz-adv-x="2236" />
<glyph unicode="&#x2004;" horiz-adv-x="745" />
<glyph unicode="&#x2005;" horiz-adv-x="559" />
<glyph unicode="&#x2006;" horiz-adv-x="372" />
<glyph unicode="&#x2007;" horiz-adv-x="372" />
<glyph unicode="&#x2008;" horiz-adv-x="279" />
<glyph unicode="&#x2009;" horiz-adv-x="447" />
<glyph unicode="&#x200a;" horiz-adv-x="124" />
<glyph unicode="&#x2010;" horiz-adv-x="1596" d="M16 812q72 340 540 340q240 0 504 -98t460 -250q-156 164 -584 184q-456 24 -920 -176z" />
<glyph unicode="&#x2011;" horiz-adv-x="1596" d="M16 812q72 340 540 340q240 0 504 -98t460 -250q-156 164 -584 184q-456 24 -920 -176z" />
<glyph unicode="&#x2012;" horiz-adv-x="1596" d="M16 812q72 340 540 340q240 0 504 -98t460 -250q-156 164 -584 184q-456 24 -920 -176z" />
<glyph unicode="&#x2013;" horiz-adv-x="1116" d="M16 812q49 340 368 340q163 0 343 -98t313 -250q-106 164 -398 184q-310 24 -626 -176z" />
<glyph unicode="&#x2014;" horiz-adv-x="2140" d="M16 812q98 340 735 340q327 0 686.5 -98t626.5 -250q-212 164 -795 184q-621 24 -1253 -176z" />
<glyph unicode="&#x202f;" horiz-adv-x="447" />
<glyph unicode="&#x205f;" horiz-adv-x="559" />
<glyph unicode="&#xe000;" horiz-adv-x="1920" d="M0 0v1920h1920v-1920h-1920z" />
</font>
</defs>
</svg>
